<svg width="20" height="18" viewBox="0 0 20 18" fill="none" xmlns="http://www.w3.org/2000/svg">
<path d="M18.6053 4.48695C18.2642 4.05108 17.7336 3.78577 17.184 3.78577H5.64295L5.28289 2.38341C5.07443 1.56852 4.3543 1 3.52046 1H1.58748C1.26531 1 1 1.26531 1 1.58748C1 1.90964 1.26531 2.17495 1.58748 2.17495H3.52046C3.80472 2.17495 4.05108 2.36446 4.12689 2.64872L6.43889 11.8588C6.64735 12.6737 7.36748 13.2422 8.20131 13.2422H15.7627C16.5965 13.2422 17.3356 12.6737 17.5251 11.8588L18.9464 6.02197C19.0791 5.49134 18.9654 4.92282 18.6053 4.48695ZM17.7904 5.75666L16.3691 11.5935C16.2933 11.8778 16.047 12.0673 15.7627 12.0673H8.20131C7.91705 12.0673 7.67069 11.8778 7.59489 11.5935L5.94616 4.97967H17.184C17.3735 4.97967 17.563 5.07443 17.6767 5.22603C17.7904 5.37764 17.8473 5.56715 17.7904 5.75666Z" fill="white" stroke="white" stroke-width="0.4"/>
<path d="M6.82939 15.9711C6.82939 15.0014 7.63054 14.2002 8.60028 14.2002C9.57002 14.2002 10.3712 15.0014 10.3712 15.9711C10.3712 16.9409 9.57002 17.742 8.60028 17.742C7.63054 17.742 6.82939 16.9409 6.82939 15.9711ZM7.6233 15.9711C7.6233 16.5175 8.05395 16.9481 8.60028 16.9481C9.12765 16.9481 9.57726 16.4985 9.57726 15.9711C9.57726 15.4248 9.14661 14.9941 8.60028 14.9941C8.05395 14.9941 7.6233 15.4248 7.6233 15.9711Z" fill="white" stroke="white" stroke-width="0.4"/>
<path d="M13.347 15.9711C13.347 15.0014 14.1481 14.2002 15.1179 14.2002C16.0839 14.2002 16.8707 14.998 16.8887 15.9729C16.8878 16.9418 16.087 17.742 15.1179 17.742C14.1481 17.742 13.347 16.9409 13.347 15.9711ZM14.1409 15.9711C14.1409 16.5175 14.5715 16.9481 15.1179 16.9481C15.6452 16.9481 16.0948 16.4985 16.0948 15.9711C16.0948 15.4248 15.6642 14.9941 15.1179 14.9941C14.5715 14.9941 14.1409 15.4248 14.1409 15.9711Z" fill="white" stroke="white" stroke-width="0.4"/>
</svg>
