<svg width="26" height="20" viewBox="0 0 26 20" fill="none" xmlns="http://www.w3.org/2000/svg">
    <path
        d="M2.6167 10.3186C2.6167 9.83267 3.01065 9.43872 3.49662 9.43872H12.2958C12.7818 9.43872 13.1757 9.83267 13.1757 10.3186C13.1757 10.8046 12.7818 11.1986 12.2958 11.1986H3.49662C3.01065 11.1986 2.6167 10.8046 2.6167 10.3186Z"
        fill="white" />
    <path
        d="M0.856934 5.91922C0.856934 5.43326 1.25089 5.03931 1.73685 5.03931H8.77619C9.26215 5.03931 9.6561 5.43326 9.6561 5.91922C9.6561 6.40519 9.26215 6.79914 8.77619 6.79914H1.73685C1.25089 6.79914 0.856934 6.40519 0.856934 5.91922Z"
        fill="white" />
    <path
        d="M25.4242 9.97229L22.7845 3.81287C22.7167 3.65456 22.604 3.51963 22.4602 3.42483C22.3165 3.33003 22.148 3.27955 21.9758 3.27964H19.3361V1.51981C19.3361 1.28644 19.2434 1.06263 19.0783 0.897614C18.9133 0.732598 18.6895 0.639893 18.4562 0.639893H5.25739C4.77143 0.639893 4.37748 1.03384 4.37748 1.51981C4.37748 2.00577 4.77143 2.39973 5.25739 2.39973H17.5762V13.448C17.1753 13.6808 16.8244 13.9907 16.5438 14.3598C16.2632 14.7289 16.0584 15.1499 15.9413 15.5985H10.4119C10.1978 14.769 9.68845 14.0461 8.97944 13.5653C8.27042 13.0845 7.41039 12.8788 6.56055 12.9868C5.71071 13.0947 4.92942 13.5089 4.36311 14.1517C3.79681 14.7945 3.48438 15.6217 3.48438 16.4784C3.48437 17.3351 3.79681 18.1623 4.36311 18.8051C4.92942 19.4479 5.71071 19.8621 6.56055 19.97C7.41039 20.078 8.27042 19.8723 8.97944 19.3915C9.68845 18.9107 10.1978 18.1878 10.4119 17.3583H15.9413C16.1328 18.1135 16.5705 18.7833 17.1854 19.2617C17.8002 19.7402 18.557 19.9999 19.3361 19.9999C20.1151 19.9999 20.8719 19.7402 21.4868 19.2617C22.1016 18.7833 22.5394 18.1135 22.7308 17.3583H24.6156C24.8489 17.3583 25.0728 17.2656 25.2378 17.1006C25.4028 16.9356 25.4955 16.7118 25.4955 16.4784V10.319C25.4955 10.1998 25.4713 10.0818 25.4242 9.97229ZM7.01723 18.2382C6.66916 18.2382 6.32892 18.135 6.03952 17.9416C5.75011 17.7483 5.52455 17.4734 5.39135 17.1519C5.25815 16.8303 5.2233 16.4764 5.29121 16.1351C5.35911 15.7937 5.52672 15.4801 5.77284 15.234C6.01895 14.9879 6.33253 14.8203 6.6739 14.7524C7.01528 14.6845 7.36912 14.7193 7.69069 14.8525C8.01225 14.9857 8.2871 15.2113 8.48048 15.5007C8.67385 15.7901 8.77706 16.1303 8.77706 16.4784C8.7766 16.945 8.59104 17.3923 8.2611 17.7223C7.93117 18.0522 7.48382 18.2378 7.01723 18.2382ZM19.3361 5.03948H21.3951L23.2816 9.43906H19.3361V5.03948ZM19.3361 18.2382C18.988 18.2382 18.6478 18.135 18.3584 17.9416C18.069 17.7483 17.8434 17.4734 17.7102 17.1519C17.577 16.8303 17.5421 16.4764 17.61 16.1351C17.678 15.7937 17.8456 15.4801 18.0917 15.234C18.3378 14.9879 18.6514 14.8203 18.9927 14.7524C19.3341 14.6845 19.688 14.7193 20.0095 14.8525C20.3311 14.9857 20.6059 15.2113 20.7993 15.5007C20.9927 15.7901 21.0959 16.1303 21.0959 16.4784C21.0954 16.945 20.9099 17.3923 20.5799 17.7223C20.25 18.0522 19.8027 18.2378 19.3361 18.2382ZM23.7357 15.5985H22.7308C22.537 14.8448 22.0985 14.1767 21.4842 13.699C20.8698 13.2212 20.1143 12.9609 19.3361 12.9587V11.1989H23.7357V15.5985Z"
        fill="white" />
</svg>
