<svg width="12" height="16" viewBox="0 0 12 16" fill="none" xmlns="http://www.w3.org/2000/svg">
    <path
        d="M5.96495 8.67538C5.42875 8.67538 4.9046 8.51638 4.45877 8.21848C4.01295 7.92059 3.66547 7.49718 3.46027 7.00181C3.25508 6.50643 3.20139 5.96133 3.306 5.43544C3.41061 4.90955 3.66881 4.42649 4.04795 4.04734C4.4271 3.6682 4.91016 3.41 5.43605 3.30539C5.96194 3.20078 6.50704 3.25447 7.00242 3.45966C7.4978 3.66485 7.9212 4.01234 8.2191 4.45816C8.51699 4.90399 8.67599 5.42814 8.67599 5.96434C8.67513 6.68309 8.38922 7.37215 7.88099 7.88038C7.37276 8.38861 6.6837 8.67452 5.96495 8.67538V8.67538ZM5.96495 4.33771C5.64323 4.33771 5.32874 4.43311 5.06124 4.61185C4.79375 4.79058 4.58526 5.04463 4.46214 5.34186C4.33903 5.63908 4.30681 5.96614 4.36958 6.28168C4.43234 6.59721 4.58726 6.88705 4.81475 7.11453C5.04224 7.34202 5.33207 7.49694 5.64761 7.55971C5.96314 7.62247 6.2902 7.59026 6.58743 7.46714C6.88466 7.34403 7.1387 7.13554 7.31744 6.86804C7.49617 6.60054 7.59157 6.28605 7.59157 5.96434C7.59114 5.53306 7.41963 5.11957 7.11467 4.81462C6.80971 4.50966 6.39622 4.33814 5.96495 4.33771V4.33771Z"
        fill="black" />
    <path
        d="M5.96429 15.1818L1.39023 9.7874C1.32667 9.7064 1.26377 9.62488 1.20154 9.54286C0.420207 8.51363 -0.00188753 7.25649 6.3454e-06 5.96429C6.3454e-06 4.38246 0.628385 2.86542 1.74691 1.7469C2.86543 0.628379 4.38247 0 5.96429 0C7.54612 0 9.06316 0.628379 10.1817 1.7469C11.3002 2.86542 11.9286 4.38246 11.9286 5.96429C11.9305 7.2559 11.5086 8.51247 10.7276 9.54123L10.727 9.54286C10.727 9.54286 10.5644 9.75649 10.54 9.78523L5.96429 15.1818ZM2.0669 8.8895C2.06799 8.8895 2.19378 9.0565 2.22252 9.09228L5.96429 13.5053L9.71095 9.08632C9.73481 9.0565 9.86168 8.88841 9.86223 8.88787C10.5005 8.04697 10.8454 7.01998 10.8442 5.96429C10.8442 4.67006 10.33 3.42885 9.41488 2.5137C8.49973 1.59854 7.25852 1.08442 5.96429 1.08442C4.67007 1.08442 3.42886 1.59854 2.5137 2.5137C1.59855 3.42885 1.08442 4.67006 1.08442 5.96429C1.08328 7.02064 1.4286 8.04821 2.06745 8.8895H2.0669Z"
        fill="black" />
</svg>
